<svg xmlns="http://www.w3.org/2000/svg" xmlns:xlink="http://www.w3.org/1999/xlink" viewBox="0 0 1080 1080"><defs><style>.a{fill:none;}.b{clip-path:url(#a);}.c{opacity:0.3;}.d{clip-path:url(#b);}.e{fill:#282826;}.f{fill:#1d1e1c;}.g{fill:#fff;}</style><clipPath id="a"><polyline class="a" points="-1173.5 -284.5 326.727 -284.5 297.11 -313.875 297.11 -725.119 266.865 -755.125 297.11 -755.125 326.727 -784.5 326.784 -784.5 -1173.557 -784.5 -1173.5 -784.5"/></clipPath><clipPath id="b"><polyline class="a" points="345.858 -284.5 1846.085 -284.5 1859.5 -287.5 1851.5 -725.5 1858.5 -738.5 1861.5 -753.5 1846.085 -784.5 1846.142 -784.5 345.801 -784.5 345.858 -784.5"/></clipPath></defs><g class="d"><g class="c"><path class="e" d="M908.55753,71.08,964.09507,6.45576l7.57469-.65374L959.56855-4.59766l-.56718-7.5003L973.07617-.0022l6.93221-8.06642,3.75669-.20363-2.06015-1.77048-.05831-1.84141,6.00732,5.16264-1.91527.14533L977.10991,3.46436l14.16083,12.16971-7.5003.56717L975.7035,9.26858,916.625,78.01313l-7.50029.56718Z"/><path class="e" d="M820.81509-1.83979,765.27755,62.78447l-7.57469.65374,12.10121,10.39968.56718,7.5003-14.0748-12.09577-6.93221,8.06642-3.75669.20364L747.6677,79.283l.05831,1.84141-6.00732-5.16265,1.91527-.14532,8.62875-10.04054-14.16083-12.1697,7.50029-.56718,8.067,6.93267L812.74761-8.77291l7.5003-.56717Z"/><path class="e" d="M908.63554,71.14706,964.17308,6.5228l7.57469-.65374L959.64656-4.53062l-.56718-7.5003L973.15418.06485l6.93221-8.06642,3.75669-.20364-2.06015-1.77048-.05831-1.84141L987.732-6.65446l-1.91528.14533L977.18792,3.53141l14.16083,12.1697-7.50029.56718-8.067-6.93267L916.703,78.08018l-7.5003.56717Z"/><path class="e" d="M1149.93174-1.81365,1094.3942,62.8106l-7.5747.65374L1098.92072,73.864l.56717,7.5003L1085.4131,69.26856l-6.93222,8.06642-3.75669.20363,2.06016,1.77048.05831,1.84141-6.00733-5.16264,1.91528-.14533,8.62875-10.04053-14.16084-12.16971,7.5003-.56717,8.06695,6.93266,59.07849-68.74455,7.5003-.56718Z"/><path class="e" d="M1010.13283,160.85829l-55.53754,64.62426-7.57469.65374L959.12181,236.536l.56718,7.5003-14.0748-12.09577-6.93221,8.06642-3.75669.20364,2.06015,1.77048.05831,1.84141-6.00732-5.16265,1.91527-.14532,8.62875-10.04054-14.16083-12.1697,7.5003-.56718,8.06694,6.93267,59.0785-68.74456,7.50029-.56717Z"/><path class="e" d="M1149.85352-1.72264,1094.316,62.90161l-7.57469.65375L1098.8425,73.955l.56718,7.50029-14.0748-12.09576-6.93221,8.06642-3.75669.20364,2.06015,1.77047.05831,1.84141-6.00732-5.16264,1.91527-.14533,8.62875-10.04053-14.16083-12.1697,7.50029-.56718,8.067,6.93267,59.0785-68.74456,7.50029-.56718Z"/></g></g><rect class="f" width="1080" height="1080" rx="59.22222"/><path class="g" d="M483.57986,974.78463V269.3562l44.03165-44.97659h-132.095L351.48488,180.348H505.12322V92.29615L527.61151,70.747H505.12322L494.82112,59.5h65.575L549.15488,70.747V180.348H703.73239l-44.03166,44.03166H571.64317v750.405l-44.03166,44.03166Z"/><polygon class="g" points="883.806 1020.5 575.586 1020.5 619.6 976.486 619.836 976.604 620.072 976.604 883.806 1020.5"/><polygon class="g" points="419.182 787.24 419.182 1010.201 347.54 1020.5 359.813 980.541 347.54 1020.5 419.182 787.24"/><polygon class="g" points="59.5 1020.5 479.632 1020.5 419.636 960.504 419.314 960.665 418.993 960.665 59.5 1020.5"/><polygon class="g" points="639.601 773.48 639.601 1009.594 715.469 1020.5 702.472 978.184 715.469 1020.5 639.601 773.48"/><polygon class="g" points="1020.5 1020.5 575.586 1020.5 639.12 956.965 639.461 957.136 639.801 957.136 1020.5 1020.5"/></svg>