<?xml version="1.0" encoding="UTF-8"?>
<svg id="Capa_1" data-name="Capa 1" xmlns="http://www.w3.org/2000/svg" viewBox="0 0 1000 362.26">
  <defs>
    <style>
      .cls-1 {
        fill: #7f84fe;
      }

      .cls-1, .cls-2 {
        stroke-width: 0px;
      }

      .cls-2 {
        fill: #fff;
      }
    </style>
  </defs>
  <path class="cls-1" d="M69.63,76.74v209.18l13.93,13.93H27.85l13.93-13.93V90.96l13.93-14.22H13.93L0,62.81h111.69l-13.93,13.93h-28.14Z"/>
  <path class="cls-2" d="M363.58,285.92V90.96l14.22-14.22h-14.22l-13.93-13.93h42.07v81.19l27.85-27.85v-53.34h41.78l-13.93,13.93v209.18l13.93,13.93h-41.78v-163.85l-27.85,27.85v136h-42.07l13.93-13.93Z"/>
  <path class="cls-1" d="M135.11,285.92V90.96l14.22-14.22h-14.22l-13.93-13.93h42.07v81.19l27.85-27.85v-53.34h41.78l-13.93,13.93v209.18l13.93,13.93h-41.78v-163.85l-27.85,27.85v136h-42.07l13.93-13.93Z"/>
  <path class="cls-2" d="M512.77,285.92l13.93,13.93h-55.7l13.93-13.93V90.66l13.93-13.93h-13.93l-13.93-13.93h55.7l-13.93,13.93v209.18Z"/>
  <path class="cls-2" d="M543.14,348.34V62.81l13.93-10.37h-42.07l-13.93-13.93h48.89V10.37l7.11-6.82h-7.11l-3.56-3.55h21.04l-3.56,3.55v34.96h48.89l-13.93,13.93h-27.85v295.9l-13.92,13.93-13.93-13.93Z"/>
  <path class="cls-2" d="M656.61,174.23v97.78h-27.84V62.83h-41.8l13.96,13.92h13.92l-13.92,13.92v195.26l-13.96,13.92h83.41l13.92-13.92.15.04v-83.6l-27.84-28.14Z"/>
  <path class="cls-2" d="M702.22,285.92V90.66l13.93-13.93h-13.93l-13.93-13.93h97.48v27.85l-13.93-13.93h-41.78v73.19l13.93-13.93h31.41v27.85h-45.33v108.14h41.78l13.93-13.93v41.78h-97.48l13.93-13.93Z"/>
  <path class="cls-1" d="M256.45,285.92V90.66l13.93-13.93h-13.93l-13.93-13.93h97.48v27.85l-13.93-13.93h-41.78v73.19l13.93-13.93h31.41v27.85h-45.33v108.14h41.78l13.93-13.93v41.78h-97.48l13.93-13.93Z"/>
  <path class="cls-2" d="M892.88,76.75v-13.92h-97.48l13.92,13.92h13.92l-13.92,14.22v72.89l27.84-27.84h27.88v135.99h-27.88v-97.48l-27.84,27.84v83.56l-13.92,13.92h83.49l13.92-13.92.07.04V108.13h-41.76l-13.96,13.92v-45.31h55.72Z"/>
  <path class="cls-2" d="M1000,76.75v-13.92h-97.48l13.92,13.92h13.92l-13.92,14.22v72.89l27.84-27.84h27.88v135.99h-27.88v-97.48l-27.84,27.84v83.56l-13.92,13.92h83.56l13.92-13.92V108.13h-41.8l-13.92,13.92v-45.31h55.72Z"/>
  <polyline class="cls-2" points="892.89 62.81 892.89 90.66 878.96 76.74"/>
  <polyline class="cls-2" points="1000 62.81 1000 90.66 986.07 76.74"/>
</svg>